<svg xmlns="http://www.w3.org/2000/svg" version="1.1" transform="rotate(180)" xmlns:xlink="http://www.w3.org/1999/xlink" xmlns:svgjs="http://svgjs.dev/svgjs" width="1440" height="560" preserveAspectRatio="none" viewBox="0 0 1440 560"><g mask="url(&quot;#SvgjsMask1051&quot;)" fill="none"><rect width="1440" height="560" x="0" y="0" fill="rgba(5, 8, 38, 1)"></rect><path d="M1536 560L0 560 L0 232.97Q78.04 191.01, 120 269.05Q153.71 182.76, 240 216.48Q281.22 185.7, 312 226.92Q370.59 213.5, 384 272.09Q430.05 246.13, 456 292.18Q457.96 222.14, 528 224.1Q572.63 148.73, 648 193.36Q733.26 158.62, 768 243.88Q826.38 230.26, 840 288.64Q842.93 219.57, 912 222.51Q940.44 178.95, 984 207.4Q1030.16 133.56, 1104 179.72Q1183.07 138.78, 1224 217.85Q1323.3 197.14, 1344 296.44Q1353.31 233.75, 1416 243.06Q1452.25 159.31, 1536 195.56z" fill="rgba(9, 15, 75, 1)"></path><path d="M1512 560L0 560 L0 299.42Q66.28 293.7, 72 359.97Q146.77 314.74, 192 389.51Q200.49 326, 264 334.48Q296.93 247.41, 384 280.34Q432.47 256.81, 456 305.28Q531.9 309.18, 528 385.09Q513.11 298.2, 600 283.31Q683.81 295.12, 672 378.93Q741.84 328.76, 792 398.6Q799.6 334.2, 864 341.8Q903.04 260.85, 984 299.89Q1052.2 248.1, 1104 316.3Q1161.86 302.15, 1176 360.01Q1204.85 316.86, 1248 345.7Q1281.34 259.04, 1368 292.38Q1419.55 271.93, 1440 323.47Q1511.93 323.4, 1512 395.34z" fill="rgba(22, 31, 125, 1)"></path><path d="M1536 560L0 560 L0 493.09Q39.74 412.83, 120 452.58Q169.5 382.08, 240 431.58Q266.35 385.93, 312 412.28Q365.86 346.14, 432 400Q502.57 398.57, 504 469.14Q513.26 406.4, 576 415.66Q597.42 365.08, 648 386.49Q676 342.49, 720 370.49Q779.75 358.24, 792 417.99Q886.38 392.37, 912 486.74Q922.24 376.98, 1032 387.21Q1098.69 333.9, 1152 400.6Q1251.57 380.17, 1272 479.74Q1295.23 430.97, 1344 454.2Q1365.24 403.44, 1416 424.68Q1485.06 373.74, 1536 442.79z" fill="rgba(47, 57, 161, 1)"></path><path d="M1560 560L0 560 L0 487.2Q82.06 449.26, 120 531.33Q197.34 488.67, 240 566.01Q251.61 505.62, 312 517.22Q328.39 461.62, 384 478.01Q430.43 452.44, 456 498.87Q543.58 466.45, 576 554.04Q616.54 474.58, 696 515.12Q718.78 465.9, 768 488.68Q822.32 423, 888 477.32Q981.7 451.02, 1008 544.73Q1050.12 466.85, 1128 508.97Q1198.35 459.32, 1248 529.66Q1334.02 495.68, 1368 581.7Q1396.48 538.18, 1440 566.66Q1476.54 483.2, 1560 519.75z" fill="rgba(182, 172, 241, 1)"></path></g><defs><mask id="SvgjsMask1051"><rect width="1440" height="560" fill="#ffffff"></rect></mask></defs></svg>