<svg id="visual" viewBox="0 0 3000 1500" width="3000" height="1500" xmlns="http://www.w3.org/2000/svg" xmlns:xlink="http://www.w3.org/1999/xlink" version="1.1"><path d="M0 391L273 391L273 196L545 196L545 196L818 196L818 346L1091 346L1091 406L1364 406L1364 271L1636 271L1636 226L1909 226L1909 151L2182 151L2182 406L2455 406L2455 211L2727 211L2727 136L3000 136L3000 181L3000 0L3000 0L2727 0L2727 0L2455 0L2455 0L2182 0L2182 0L1909 0L1909 0L1636 0L1636 0L1364 0L1364 0L1091 0L1091 0L818 0L818 0L545 0L545 0L273 0L273 0L0 0Z" fill="#fa7268"></path><path d="M0 586L273 586L273 481L545 481L545 451L818 451L818 496L1091 496L1091 526L1364 526L1364 436L1636 436L1636 466L1909 466L1909 451L2182 451L2182 601L2455 601L2455 481L2727 481L2727 421L3000 421L3000 361L3000 179L3000 134L2727 134L2727 209L2455 209L2455 404L2182 404L2182 149L1909 149L1909 224L1636 224L1636 269L1364 269L1364 404L1091 404L1091 344L818 344L818 194L545 194L545 194L273 194L273 389L0 389Z" fill="#ea5e66"></path><path d="M0 1036L273 1036L273 706L545 706L545 1141L818 1141L818 1021L1091 1021L1091 991L1364 991L1364 1021L1636 1021L1636 706L1909 706L1909 676L2182 676L2182 1051L2455 1051L2455 1096L2727 1096L2727 991L3000 991L3000 961L3000 359L3000 419L2727 419L2727 479L2455 479L2455 599L2182 599L2182 449L1909 449L1909 464L1636 464L1636 434L1364 434L1364 524L1091 524L1091 494L818 494L818 449L545 449L545 479L273 479L273 584L0 584Z" fill="#d84a64"></path><path d="M0 1336L273 1336L273 1261L545 1261L545 1411L818 1411L818 1321L1091 1321L1091 1411L1364 1411L1364 1306L1636 1306L1636 1246L1909 1246L1909 1306L2182 1306L2182 1396L2455 1396L2455 1396L2727 1396L2727 1261L3000 1261L3000 1291L3000 959L3000 989L2727 989L2727 1094L2455 1094L2455 1049L2182 1049L2182 674L1909 674L1909 704L1636 704L1636 1019L1364 1019L1364 989L1091 989L1091 1019L818 1019L818 1139L545 1139L545 704L273 704L273 1034L0 1034Z" fill="#c53762"></path><path d="M0 1501L273 1501L273 1501L545 1501L545 1501L818 1501L818 1501L1091 1501L1091 1501L1364 1501L1364 1501L1636 1501L1636 1501L1909 1501L1909 1501L2182 1501L2182 1501L2455 1501L2455 1501L2727 1501L2727 1501L3000 1501L3000 1501L3000 1289L3000 1259L2727 1259L2727 1394L2455 1394L2455 1394L2182 1394L2182 1304L1909 1304L1909 1244L1636 1244L1636 1304L1364 1304L1364 1409L1091 1409L1091 1319L818 1319L818 1409L545 1409L545 1259L273 1259L273 1334L0 1334Z" fill="#b0235f"></path></svg>